<svg xmlns="http://www.w3.org/2000/svg" xmlns:svg="http://www.w3.org/2000/svg" xmlns:xlink="http://www.w3.org/1999/xlink" id="svg2911" width="161.88" height="152.326" enable-background="new 0 0 180.031 192.284" style="overflow:visible" overflow="visible" version="1.1" viewBox="0 0 161.88 152.326" xml:space="preserve"><metadata id="metadata2913"/><switch id="switch2915" transform="translate(-9.076)"><g id="g2919"><g id="Layer_1"><path id="path2922" d="m 162.029,89.659 c -5.197,-11.431 -16.867,-13.098 -24.172,-17.862 -3.496,-2.28 -4.911,-6.857 -5.468,-10.683 -3.441,0.357 -9.172,0.409 -11.909,-6.55 -2.152,-5.472 -1.26,-14.54 -8.464,-22.223 -6.549,-6.986 -14.607,-9.288 -22,-8.77 9.061,6.059 5.487,15.191 -1.092,15.191 -9.158,0 -11.719,-11.029 -25.125,-11.029 -3.066,0 -5.768,0.958 -7.454,2.072 7.508,0.948 9.304,7.104 11.65,12.675 1.866,4.429 5.2,7.008 10.083,8.358 -0.882,0.506 -2.988,1.13 -5.714,1.13 -5.922,0 -10.045,-3.116 -14.286,-7.483 -3.73,-3.845 -7.892,-7.488 -14.87,-7.488 -3.433,0 -6.062,1.087 -6.973,1.701 3.833,0.603 9.49,2.886 9.49,6.938 0,3.465 -3.832,4.792 -6.972,1.476 -3.497,-3.691 -8.404,-6.485 -14.021,-6.485 -2.775,0 -5.55,0.885 -6.729,2.033 6.656,0.768 10.6,5.042 14.721,14.573 2.326,5.38 5.639,10.466 13.979,10.56 3.796,0.046 9.186,-1.759 12.35,1.278 2.995,2.874 1.989,6.645 3.358,9.699 1.725,3.842 5.297,5.822 12.282,6.186 -5.796,4.849 -19.649,1.941 -24.367,-3.016 0.622,12.405 10.407,23.533 29.831,18.3 3.376,-0.908 5.784,-0.395 7.083,3.021 1.784,4.689 6.008,5.467 10,4.973 9.129,-1.132 14.549,0.706 19.803,6.985 1.148,-10.388 -6.278,-16.491 -10.941,-19.407 -4.442,-2.779 -4.877,-5.668 -4.932,-7.907 3.216,3.678 7.406,5.237 11.765,5.851 7.537,1.06 12.936,3.163 15.793,7.203 0.834,-11.418 -11.154,-13.999 -12.623,-18.802 3.771,2.461 6.552,3.355 10.48,3.056 5.238,-0.396 11.609,-4.511 16.31,3.542 5.998,-3.899 13.857,-2.509 19.134,0.904 M 96.767,74.262 H 83.265 V 60.759 H 96.767 Z M 83.265,13.502 H 96.767 V 0 H 83.265 Z M 96.767,121.521 H 83.265 v 13.501 h 13.502 z"/><path id="path2924" d="m 13.183,152.30981 c 2.511,0 4.152,-1.439 4.152,-4.431 v -6.584 h -2.229 v 6.692 c 0,1.504 -0.73,2.248 -1.892,2.248 -1.163,0 -1.891,-0.76 -1.891,-2.294 v -6.646 H 9.076 v 6.63 c 0,2.93 1.611,4.385 4.107,4.385 m 5.562,-0.169 h 2.198 v -6.555 l 4.294,6.555 h 1.92 v -10.846 h -2.198 v 6.319 l -4.155,-6.319 h -2.059 z m 10.058,0 h 2.245 v -10.846 h -2.245 z m 6.59,0.06 h 2.076 l 3.656,-10.906 h -2.369 l -2.293,7.468 -2.293,-7.468 h -2.433 z m 6.304,-0.06 h 7.049 v -2.029 h -4.82 v -2.418 h 4.185 v -2.029 h -4.185 v -2.344 h 4.757 v -2.025 h -6.986 z m 8.295,0 h 2.245 v -3.565 h 1.41 l 2.001,3.565 h 2.57 l -2.307,-4.031 c 1.192,-0.525 2.012,-1.563 2.012,-3.205 v -0.062 c 0,-1.071 -0.324,-1.924 -0.912,-2.511 -0.682,-0.682 -1.689,-1.037 -2.945,-1.037 h -4.074 z m 2.245,-5.548 v -3.272 h 1.612 c 1.147,0 1.814,0.545 1.814,1.63 v 0.016 c 0,0.977 -0.62,1.627 -1.768,1.627 h -1.658 z m 10.136,5.685 c 2.108,0 3.64,-1.238 3.64,-3.252 v -0.032 c 0,-1.689 -1.021,-2.493 -2.91,-3.24 -1.691,-0.695 -2.063,-0.991 -2.063,-1.61 v -0.014 c 0,-0.56 0.481,-0.948 1.257,-0.948 0.837,0 1.626,0.451 2.31,1.008 l 1.253,-1.703 c -0.99,-0.898 -2.229,-1.332 -3.501,-1.332 -2.091,0 -3.547,1.286 -3.547,3.175 v 0.031 c 0,1.86 1.191,2.587 3.113,3.334 1.551,0.587 1.861,0.929 1.861,1.471 v 0.017 c 0,0.635 -0.528,1.068 -1.395,1.068 -1.086,0 -1.969,-0.59 -2.697,-1.224 l -1.332,1.656 c 1.193,1.116 2.631,1.595 4.011,1.595 m 4.482,-0.137 h 2.243 v -10.846 h -2.243 z m 5.745,0 h 2.229 v -8.771 h 2.729 v -2.074 h -7.684 v 2.074 H 72.6 Z m 8.664,0 h 2.244 v -4.31 l 3.533,-6.536 h -2.479 l -2.154,4.261 -2.136,-4.261 H 77.73 l 3.533,6.567 v 4.279 z m 13.462,0.185 c 2.867,0 4.91,-2.292 4.91,-5.532 v -0.186 c 0,-3.239 -2.013,-5.501 -4.896,-5.501 -2.869,0 -4.911,2.275 -4.911,5.532 v 0.186 c 0.001,3.238 2.014,5.501 4.897,5.501 m 0.015,-2.076 c -1.503,0 -2.604,-1.349 -2.604,-3.487 v -0.108 c 0,-2.139 1.068,-3.473 2.59,-3.473 1.503,0 2.588,1.351 2.588,3.49 v 0.105 c -0.001,2.141 -1.071,3.473 -2.574,3.473 m 5.802,1.891 h 2.244 v -4.296 h 4.169 v -2.057 h -4.169 v -2.435 h 4.742 v -2.059 h -6.986 z m 11.355,0 h 2.246 v -4.418 h 3.565 v 4.418 h 2.246 v -10.846 h -2.246 v 4.354 h -3.565 v -4.354 h -2.246 z m 9.663,0 h 7.05 v -2.029 h -4.82 v -2.418 h 4.183 v -2.029 h -4.183 v -2.344 h 4.758 v -2.025 h -6.987 v 10.845 z m 8.294,0 h 6.632 v -2.061 h -4.386 v -8.785 h -2.246 z m 10.992,0.137 c 2.108,0 3.638,-1.238 3.638,-3.252 v -0.032 c 0,-1.689 -1.02,-2.493 -2.911,-3.24 -1.689,-0.695 -2.062,-0.991 -2.062,-1.61 v -0.014 c 0,-0.56 0.48,-0.948 1.258,-0.948 0.836,0 1.627,0.451 2.309,1.008 l 1.253,-1.703 c -0.99,-0.898 -2.231,-1.332 -3.502,-1.332 -2.091,0 -3.547,1.286 -3.547,3.175 v 0.031 c 0,1.86 1.192,2.587 3.113,3.334 1.551,0.587 1.862,0.929 1.862,1.471 v 0.017 c 0,0.635 -0.528,1.068 -1.397,1.068 -1.085,0 -1.968,-0.59 -2.695,-1.224 l -1.331,1.656 c 1.191,1.116 2.631,1.595 4.012,1.595 m 4.736,-0.137 h 2.246 v -10.846 h -2.246 z m 3.867,0 h 2.199 v -6.555 l 4.294,6.555 h 1.92 v -10.846 h -2.199 v 6.319 l -4.154,-6.319 h -2.06 z m 10.021,0 h 2.243 v -3.193 l 1.008,-1.27 2.713,4.463 h 2.633 l -3.797,-6.245 3.642,-4.601 h -2.648 l -3.55,4.678 v -4.678 h -2.243 v 10.846 z m 9.239,0 h 2.246 v -10.846 h -2.246 z"/></g></g></switch></svg>